<svg id="visual" viewBox="0 0 900 450" width="900" height="450" xmlns="http://www.w3.org/2000/svg" xmlns:xlink="http://www.w3.org/1999/xlink" version="1.1"><rect x="0" y="0" width="900" height="450" fill="#fdf9ec"></rect><g fill="none" stroke="#d74f11" stroke-width="1"><circle r="14" cx="225" cy="390"></circle><circle r="6" cx="329" cy="12"></circle><circle r="5" cx="397" cy="274"></circle><circle r="6" cx="132" cy="318"></circle><circle r="11" cx="594" cy="7"></circle><circle r="8" cx="295" cy="376"></circle><circle r="6" cx="762" cy="343"></circle><circle r="6" cx="796" cy="347"></circle><circle r="10" cx="390" cy="414"></circle><circle r="5" cx="75" cy="292"></circle><circle r="10" cx="886" cy="206"></circle><circle r="9" cx="499" cy="443"></circle><circle r="12" cx="284" cy="113"></circle><circle r="7" cx="586" cy="203"></circle><circle r="5" cx="745" cy="411"></circle><circle r="11" cx="510" cy="375"></circle><circle r="10" cx="865" cy="410"></circle><circle r="6" cx="183" cy="182"></circle><circle r="8" cx="716" cy="205"></circle><circle r="7" cx="203" cy="340"></circle><circle r="11" cx="118" cy="84"></circle><circle r="10" cx="712" cy="429"></circle><circle r="10" cx="651" cy="339"></circle><circle r="7" cx="604" cy="331"></circle><circle r="12" cx="483" cy="245"></circle><circle r="10" cx="464" cy="386"></circle><circle r="5" cx="539" cy="425"></circle><circle r="10" cx="120" cy="246"></circle><circle r="8" cx="780" cy="420"></circle><circle r="12" cx="493" cy="127"></circle><circle r="7" cx="613" cy="299"></circle><circle r="10" cx="277" cy="214"></circle><circle r="7" cx="847" cy="273"></circle><circle r="11" cx="689" cy="17"></circle><circle r="9" cx="261" cy="56"></circle><circle r="10" cx="877" cy="331"></circle><circle r="6" cx="472" cy="72"></circle></g></svg>