<svg width="98" height="130" viewBox="0 0 98 130" fill="none" xmlns="http://www.w3.org/2000/svg">
<path fill-rule="evenodd" clip-rule="evenodd" d="M49.0257 0.071547C48.827 0.319637 44.9475 7 44.935 7.11568C44.9163 7.288 49.0286 14.3088 49.1468 14.3066C49.2022 14.3056 50.186 12.6959 51.3331 10.7293L53.4186 7.15371L51.3455 3.62711C50.2053 1.68745 49.24 0.0651095 49.2004 0.022028C49.1607 -0.0211525 49.0822 0.00113103 49.0257 0.071547ZM61.7547 4.11853C60.6251 4.2559 59.2311 4.62986 58.1786 5.07791C57.3059 5.4493 55.4158 6.59692 55.1422 6.92156C55.0391 7.04388 55.1167 7.23918 55.5867 8.04178C55.8999 8.57639 56.1704 9.0283 56.1878 9.04593C56.2052 9.06355 56.5292 8.82943 56.9077 8.52558C57.7655 7.83717 59.5511 6.94979 60.6136 6.68397C63.6984 5.91231 66.9177 6.52937 69.3952 8.36761C72.9133 10.9778 74.3697 15.4003 73.0652 19.5119C72.2345 22.1298 70.3153 24.3174 67.7577 25.5611C67.1507 25.8563 66.5989 26.0979 66.5315 26.0979C66.2463 26.0979 66.3164 26.3488 66.8523 27.2454C67.5199 28.3622 67.4007 28.3437 68.9686 27.575C72.507 25.8403 75.0109 22.5028 75.7022 18.5997C75.8956 17.5077 75.8941 15.4711 75.6992 14.3501C74.8229 9.31075 70.7602 5.21241 65.705 4.26818C64.6594 4.07288 62.7308 3.99989 61.7547 4.11853ZM61.8367 7.78062C61.0329 7.91343 59.9654 8.2661 59.1596 8.66493C58.3746 9.05355 56.9422 10.0871 56.9422 10.265C56.9422 10.3204 57.1251 10.674 57.3485 11.0508L57.7548 11.7358L58.3795 11.2141C59.8301 10.0025 61.1704 9.45852 62.8912 9.38295C64.2649 9.32254 65.2281 9.51992 66.4635 10.1149C69.3852 11.5222 71.0108 14.751 70.3616 17.8571C69.7811 20.6347 67.8303 22.6105 64.8067 23.4833C64.6884 23.5174 64.8883 23.9371 65.4766 24.8901C65.5918 25.0767 67.025 24.5432 67.9755 23.96C72.296 21.3086 73.5038 15.604 70.6156 11.4903C69.2598 9.55934 67.1562 8.22619 64.8364 7.82786C63.9029 7.66762 62.6408 7.64771 61.8367 7.78062ZM42.0053 12.0005C40.8989 13.887 39.9552 15.508 39.9081 15.6025C39.8434 15.7327 40.3327 16.6442 41.9198 19.3509C43.0733 21.318 44.0618 22.913 44.1165 22.8954C44.1975 22.8693 45.5015 20.686 48.0893 16.2436L48.3778 15.7484L46.2927 12.1896C45.1459 10.2322 44.1648 8.61719 44.1124 8.60065C44.0599 8.58411 43.1118 10.114 42.0053 12.0005ZM53.9867 8.791C53.7164 9.21013 39.9331 32.7436 39.8836 32.8705C39.8373 32.9893 41.728 36.2621 47.4712 46.0045L49.8941 50.1146L49.5205 50.1411C49.315 50.1558 48.9466 50.1328 48.7019 50.0902L48.2568 50.0126L41.158 37.8615C37.2536 31.1784 34.0288 25.7085 33.9919 25.7061C33.9206 25.7014 29.8576 32.6795 29.8017 32.9025C29.7718 33.0222 43.7433 56.9843 44.01 57.2705C44.1016 57.3689 46.0625 57.3896 53.4016 57.3696L62.6774 57.3443L55.6769 45.4103C51.8267 38.8465 48.6136 33.3578 48.5368 33.2132C48.4012 32.9579 48.5473 32.6937 53.4284 24.3622C56.1957 19.6388 58.4464 15.7382 58.4303 15.6942C58.3343 15.4341 54.2636 8.57421 54.2036 8.57143C54.1633 8.56965 54.0658 8.66849 53.9867 8.791ZM61.75 11.9235C61.4344 12.0256 60.9818 12.222 60.7441 12.3598C60.2073 12.6711 59.2657 13.5948 59.1925 13.8819C59.1528 14.0377 59.7073 15.0693 61.2337 17.6791L63.3293 21.2623L63.8826 21.214C65.5463 21.0688 67.1895 19.8068 67.8103 18.1971C68.1105 17.419 68.1822 16.1395 67.9711 15.329C67.5957 13.8872 66.6844 12.7962 65.3217 12.157C64.5812 11.8097 64.4732 11.7872 63.4299 11.7631C62.5663 11.7433 62.1977 11.7785 61.75 11.9235ZM38.9004 17.4073C38.7257 17.6806 35.0912 23.8844 34.931 24.1827C34.8291 24.3723 35.0559 24.8056 36.9185 27.979C38.075 29.9493 39.0418 31.5817 39.067 31.6066C39.0923 31.6314 40.071 30.0159 41.2418 28.0166L43.3707 24.3815L41.8889 21.8477C41.074 20.454 40.1331 18.8358 39.7981 18.2517C39.463 17.6677 39.156 17.1885 39.1158 17.187C39.0756 17.1857 38.9786 17.2847 38.9004 17.4073ZM58.68 18.0015C58.4158 18.4509 57.4677 20.0665 56.5734 21.5916L54.9474 24.3647L55.2658 24.9196C55.441 25.2249 62.0796 36.5334 70.0182 50.0497L84.4522 74.6249L88.7043 74.6257L92.9565 74.6264L92.778 74.2917C92.2018 73.2104 59.293 17.1876 59.2332 17.1862C59.1932 17.1853 58.9442 17.5522 58.68 18.0015ZM52.033 29.3277L49.9001 32.9538L57.3112 45.6443C61.3873 52.624 64.7917 58.4413 64.8765 58.5715L65.0306 58.8083L54.9408 58.7696L44.8509 58.7309L42.8406 62.2467C41.7349 64.1804 40.8069 65.8183 40.7784 65.8864C40.7369 65.9851 44.4595 66.0101 59.1946 66.0101C70.0828 66.0101 77.6627 65.9735 77.6627 65.9209C77.6627 65.8346 54.3721 25.9259 54.2342 25.7759C54.1967 25.7351 53.2062 27.3334 52.033 29.3277ZM26.8247 37.9035C24.9442 41.1145 24.7362 41.5138 24.8259 41.7404C24.8809 41.8796 25.9965 43.8153 27.3048 46.0419C28.6132 48.2686 29.6837 50.1028 29.6837 50.1179C29.6837 50.1331 27.4319 50.1231 24.6795 50.0957L19.6754 50.0459L12.5339 62.2519C8.60606 68.9651 5.37728 74.4957 5.35887 74.5421C5.34036 74.5885 7.24645 74.6264 9.59461 74.6264H13.8638L18.8819 66.0349L23.9 57.4434L24.9059 57.3807C25.4591 57.3463 29.6395 57.3128 34.1956 57.3064C41.5008 57.2962 42.4726 57.2773 42.4218 57.1469C42.3276 56.905 29.1678 34.5767 29.0404 34.4426C28.95 34.3473 28.45 35.1283 26.8247 37.9035ZM22.6166 62.2433C21.4692 64.2024 20.5304 65.8519 20.5304 65.9088C20.5304 65.9795 21.8736 66.0041 24.7748 65.9865L29.0193 65.9606L31.1067 62.3953C32.2549 60.4343 33.1965 58.7965 33.1992 58.7556C33.2019 58.7147 31.2913 58.6813 28.9535 58.6813H24.7029L22.6166 62.2433ZM34.7812 58.7556C33.7087 60.558 30.5889 65.9156 30.5889 65.955C30.5889 65.9853 32.5065 66.0101 34.8502 66.0101H39.1115L41.1871 62.449C42.3286 60.4904 43.2626 58.8414 43.2626 58.7846C43.2626 58.6639 34.8528 58.6351 34.7812 58.7556ZM19.9269 70.51V72.9285L20.455 73.1189C20.7454 73.2236 22.9338 73.9877 25.318 74.8169L29.6529 76.3246L34.4815 74.6832C37.1372 73.7805 39.3507 73.0418 39.4004 73.0417C39.4501 73.0417 41.6633 73.78 44.3188 74.6822L49.1468 76.3226L53.9955 74.6342L58.8441 72.9458L63.7032 74.6339L68.5625 76.3219L73.3892 74.6415L78.2159 72.9611L78.2428 70.5396L78.2696 68.1179L73.4779 69.7875C70.8424 70.7059 68.629 71.4572 68.5592 71.4572C68.4894 71.4572 66.2745 70.7066 63.6373 69.7891L58.8423 68.121L54.0575 69.7891C51.4258 70.7066 49.2149 71.4572 49.1444 71.4572C49.0737 71.4572 46.8954 70.7199 44.3036 69.8186C41.7118 68.9174 39.5234 68.1745 39.4404 68.1679C39.3574 68.1613 37.1492 68.8986 34.5333 69.8065C31.9172 70.7144 29.7198 71.4572 29.6499 71.4572C29.5383 71.4572 21.2894 68.6143 20.3041 68.2362L19.9269 68.0915V70.51ZM15.4006 75.9696C12.9941 76.8106 10.8328 77.5693 10.5976 77.6554L10.1702 77.812V80.1808C10.1702 82.0112 10.1987 82.5489 10.2959 82.5467C10.3651 82.5452 12.5659 81.7955 15.1866 80.8807L19.9517 79.2173L24.7316 80.8835C27.3603 81.7998 29.5768 82.5495 29.6569 82.5495C29.737 82.5495 31.962 81.8153 34.6015 80.918L39.4005 79.2866L44.2002 80.918C46.84 81.8153 49.0644 82.5495 49.1431 82.5495C49.222 82.5495 51.3969 81.8141 53.9764 80.9154C56.556 80.0166 58.7476 79.2812 58.8469 79.2812C58.9461 79.2812 61.1394 80.0166 63.721 80.9154C66.3027 81.8141 68.4789 82.5495 68.5571 82.5495C68.6352 82.5495 70.8111 81.8141 73.3924 80.9154C75.9737 80.0166 78.1647 79.2812 78.2614 79.2812C78.3581 79.2812 80.5521 80.0166 83.137 80.9154C85.7219 81.8141 87.8795 82.5495 87.9317 82.5495C87.9893 82.5495 88.0159 81.6101 87.9997 80.1622L87.9727 77.7748L83.1201 76.0871L78.2674 74.3996L73.475 76.0646C70.8391 76.9804 68.6238 77.7296 68.552 77.7296C68.4802 77.7296 66.268 76.98 63.636 76.0637L58.8507 74.3978L54.053 76.0667C51.4142 76.9846 49.1856 77.7302 49.1005 77.7236C49.0154 77.7168 46.8183 76.9728 44.2182 76.0699C41.6181 75.1672 39.4454 74.4292 39.3901 74.43C39.3348 74.4307 37.1219 75.1842 34.4726 76.1044L29.6557 77.7773L24.8497 76.1028C22.2066 75.1818 19.9836 74.4311 19.9099 74.4344C19.8363 74.4378 17.8071 75.1286 15.4006 75.9696ZM20.0099 90.6758C18.3218 90.8669 16.9937 92.0289 16.6152 93.6459C16.4684 94.2734 16.4851 95.9786 16.6437 96.5629C17.1657 98.4872 18.6075 99.4846 20.8663 99.4846C23.5312 99.4846 25.1609 97.8118 25.1558 95.0813C25.1516 92.81 24.1657 91.3227 22.3409 90.8356C21.5983 90.6373 20.8209 90.584 20.0099 90.6758ZM92.9013 90.6769C91.9217 90.8003 91.1959 91.1215 90.6015 91.6946C89.6587 92.6034 89.2556 93.8241 89.3599 95.4557C89.52 97.9614 90.8442 99.3162 93.2751 99.4598C96.2921 99.6391 98.001 98.0366 98 95.0282C98 93.086 97.3422 91.8228 95.9672 91.1207C95.1442 90.7003 94.014 90.5368 92.9013 90.6769ZM0.98855 90.8769C0.627047 90.9615 0.0110644 91.2308 0.0110644 91.3042C0.0110644 91.3231 0.581985 92.1559 1.27974 93.155C1.9776 94.154 2.56653 95.018 2.58866 95.0746C2.61079 95.1319 2.03735 96.044 1.31445 97.1027L0 99.028L0.282141 99.1825C0.518717 99.3112 1.01943 99.336 3.38066 99.336H6.19704V98.7418V98.1476L4.26078 98.1208C3.19579 98.1059 2.32452 98.0723 2.32452 98.0455C2.32452 98.0178 2.70926 97.4285 3.17949 96.7353C4.30454 95.0774 4.30564 95.1497 3.13061 93.4017L2.22675 92.0571H4.18484H6.14293L6.20217 91.8249C6.23466 91.6971 6.24683 91.4185 6.22923 91.2059L6.19704 90.8192L3.783 90.8035C2.45528 90.7949 1.19777 90.8279 0.98855 90.8769ZM8.6989 90.9596C8.47067 91.0616 8.25029 91.1987 8.20915 91.2641C8.16811 91.3295 8.16761 92.3369 8.20794 93.5028L8.28127 95.6221H9.41285H10.5444L10.6079 96.142C10.6428 96.4283 10.6718 97.275 10.6722 98.0238L10.6731 99.3855L11.0503 99.3845C11.9284 99.3816 11.8801 99.4945 11.8801 97.4434V95.6221L12.7099 95.6211C13.1663 95.6211 13.7095 95.5924 13.9169 95.5587L14.2941 95.4973V93.1336V90.7696H14.0624C13.9349 90.7696 13.6008 90.8824 13.3199 91.0203L12.809 91.271L12.8453 91.8869C12.8652 92.2256 12.9008 92.8692 12.9244 93.3172L12.9671 94.1316L12.65 94.1797C12.4755 94.2062 11.7329 94.256 11 94.2904L9.66723 94.3529V92.5613V90.7696L9.39062 90.7718C9.23854 90.773 8.92723 90.8575 8.6989 90.9596ZM29.1128 90.8692C28.8266 90.9105 28.4192 91.0275 28.2076 91.1293C27.8794 91.2871 27.8255 91.358 27.841 91.6114C27.851 91.7749 27.8922 93.5916 27.9326 95.6488L28.006 99.3885L30.9822 99.3627L33.9585 99.336V98.7913V98.2466L31.6199 98.2208L29.2813 98.1941V95.1259V92.0571H31.584C34.1242 92.0571 34.0088 92.0877 34.0088 91.4134C34.0088 90.7408 34.1071 90.7683 31.76 90.782C30.5903 90.7887 29.3991 90.828 29.1128 90.8692ZM42.1962 90.9009C42.0247 90.9649 41.7818 91.0856 41.6566 91.1691L41.4288 91.3209L41.5415 94.5858C41.6036 96.3817 41.6541 98.1961 41.6538 98.618L41.6533 99.3855L42.0808 99.3845C42.3158 99.3835 42.61 99.3568 42.7346 99.3231L42.9609 99.2637V95.0167V90.7696L42.7346 90.7772C42.61 90.7813 42.3678 90.837 42.1962 90.9009ZM57.2638 90.924C56.6756 91.0799 56.3387 91.233 56.3387 91.3445C56.3387 91.3847 56.9003 92.3224 57.5867 93.4287L58.8347 95.4399L57.637 97.2334C56.9782 98.2198 56.4393 99.0607 56.4393 99.1023C56.4393 99.2112 57.1286 99.3845 57.5646 99.3855C57.9339 99.3855 57.9397 99.3796 58.758 98.0406C59.2102 97.3008 59.6133 96.7323 59.6538 96.7778C59.6942 96.8234 60.0781 97.4285 60.5068 98.1228C61.2771 99.3707 61.2906 99.3855 61.654 99.3855C62.2101 99.3845 62.8017 99.1984 62.7411 99.0429C62.713 98.9706 62.1721 98.1337 61.5392 97.1819C60.581 95.7419 60.4058 95.421 60.4922 95.2655C60.5493 95.1625 61.0129 94.4093 61.5223 93.5922C62.497 92.0292 62.6295 91.7014 62.5196 91.1246L62.4519 90.7696L60.1246 90.7762C58.4429 90.7808 57.6492 90.8219 57.2638 90.924ZM74.453 90.9925C74.4055 91.115 73.6824 92.9674 72.8462 95.1091C72.01 97.2503 71.3259 99.0419 71.3259 99.0904C71.3259 99.2142 72.0009 99.3845 72.4938 99.3855H72.9074L74.0401 96.142C74.6631 94.3585 75.2052 92.8638 75.2449 92.8207C75.2846 92.7777 75.8348 94.2261 76.4677 96.039L77.6184 99.336L78.0841 99.3667C78.3421 99.3826 78.7122 99.3291 78.9139 99.2459C79.2766 99.0973 79.2775 99.0954 79.1413 98.7705C79.0662 98.5913 78.3316 96.7184 77.5089 94.6073L76.0133 90.7696H75.2764C74.605 90.7696 74.5319 90.7894 74.453 90.9925ZM81.9054 90.9581C81.6111 91.0581 81.322 91.1876 81.263 91.2456C81.1872 91.3203 81.5427 91.9033 82.479 93.2399L83.8021 95.1289L82.486 97.0581C81.7622 98.1188 81.1959 99.029 81.2278 99.0795C81.3623 99.2944 82.4334 99.3855 84.7984 99.3855C86.9843 99.3855 87.305 99.3667 87.3584 99.2291C87.4358 99.031 87.4347 98.6101 87.3561 98.3209C87.2959 98.1 87.2826 98.098 85.3472 98.098H83.3989L84.3129 96.7392C85.4504 95.0467 85.4518 95.1388 84.2622 93.3849L83.3951 92.1066L85.3458 92.0798C87.2677 92.0533 87.2974 92.0497 87.3566 91.8322C87.4347 91.5454 87.4356 91.1242 87.3584 90.9263C87.305 90.7893 86.9925 90.77 84.8689 90.7729C82.7791 90.7757 82.3659 90.8014 81.9054 90.9581ZM50.199 91.0968C49.573 91.4226 49.2977 91.9715 49.2977 92.8935C49.2977 94.252 49.952 94.9317 51.2553 94.927C52.395 94.923 53.0234 94.4421 53.2443 93.4049C53.381 92.7632 53.2432 92.0105 52.9029 91.54C52.42 90.8721 51.0588 90.649 50.199 91.0968ZM51.9129 92.2177C52.1241 92.4196 52.1635 92.5472 52.1589 93.0136C52.1517 93.7258 51.8876 93.9881 51.2609 93.9054C50.6773 93.8283 50.4042 93.4802 50.4042 92.8133C50.4042 92.5272 50.4608 92.2214 50.5299 92.1339C50.7988 91.7936 51.5149 91.837 51.9129 92.2177ZM22.2697 92.2869C22.8623 92.6295 23.3007 93.2075 23.5129 93.9261C23.8372 95.0246 23.5432 96.9799 22.9402 97.7346C22.5353 98.2416 20.33 98.3585 19.4599 97.9197C18.3132 97.3404 17.7467 95.9004 18.0096 94.2318C18.1267 93.4887 18.5311 92.4506 18.7839 92.244C19.0349 92.0388 19.5604 91.968 20.6813 91.9883C21.6939 92.0065 21.8287 92.0319 22.2697 92.2869ZM94.8628 92.164C96.3947 92.8459 96.9348 94.6213 96.2629 96.764C95.9883 97.6385 95.6656 97.9732 94.9748 98.099C93.1008 98.4397 91.7878 97.9683 91.1716 96.7323C90.9124 96.2123 90.8896 96.0757 90.8896 95.0282C90.8896 93.774 91.0635 93.055 91.5058 92.4799C91.821 92.0702 92.1656 91.9775 93.4043 91.9692C94.2108 91.9637 94.4998 92.0023 94.8628 92.164ZM60.8306 92.3938C60.7436 92.5246 60.4396 92.9925 60.1551 93.4337C59.8706 93.875 59.6243 94.236 59.6077 94.236C59.5911 94.236 59.3448 93.875 59.0603 93.4337C58.7758 92.9925 58.4718 92.5246 58.3848 92.3938L58.2267 92.1561H59.6077H60.9887L60.8306 92.3938ZM65.9328 94.4738C65.2847 94.771 64.939 95.2141 64.7307 96.0143C64.3463 97.4919 64.986 98.9418 66.1779 99.2934C66.392 99.3568 66.9519 99.3915 67.4283 99.3717C68.1916 99.341 68.3415 99.3023 68.7272 99.0389C69.4001 98.5814 69.7324 97.8445 69.7324 96.8105C69.7324 96.1193 69.6907 95.9182 69.4478 95.4399C69.0067 94.5714 68.3534 94.2366 67.1013 94.2374C66.6242 94.2377 66.3084 94.3017 65.9328 94.4738ZM50.4701 95.4636C49.6283 95.7726 49.2968 96.3282 49.2993 97.4266C49.3021 98.5903 49.7609 99.1944 50.7852 99.3835C52.35 99.6717 53.4504 98.6823 53.2891 97.1324C53.2171 96.4401 52.8642 95.836 52.3914 95.5963C51.8959 95.3458 50.9681 95.2814 50.4701 95.4636ZM67.7517 95.5656C68.4142 95.838 68.6605 96.9314 68.247 97.7643L68.0568 98.1476L67.3726 98.1773C66.7145 98.206 66.6754 98.1941 66.3542 97.8782C66.1291 97.6563 65.9967 97.4117 65.9479 97.1275C65.8529 96.5738 66.0517 95.7627 66.3294 95.5716C66.5994 95.3854 67.3068 95.3824 67.7517 95.5656ZM51.8822 96.6541C52.1279 96.862 52.1636 96.9611 52.1581 97.4216C52.1491 98.1783 52.0021 98.3951 51.5004 98.3951C51.0661 98.3951 50.7305 98.2614 50.5331 98.0079C50.385 97.8178 50.3666 97.0205 50.5022 96.6689C50.5894 96.4431 50.6562 96.4144 51.1001 96.4144C51.4836 96.4144 51.6656 96.4708 51.8822 96.6541ZM45.339 101.663C44.4976 101.921 44.12 102.894 44.5761 103.631C44.6894 103.814 44.7685 103.974 44.7517 103.985C44.7349 103.997 44.5741 104.064 44.3942 104.134C44.0456 104.271 43.9811 104.481 44.1978 104.773C44.3208 104.939 44.3719 104.94 45.0988 104.792C45.5226 104.706 46.0928 104.635 46.3658 104.635C46.9201 104.635 46.9843 104.563 46.9843 103.946V103.57L46.5436 103.618C46.0269 103.676 45.4729 103.519 45.2196 103.244C45.0464 103.055 45.0486 103.039 45.283 102.791C45.5045 102.557 45.577 102.539 46.1101 102.585C46.6666 102.634 46.699 102.624 46.7932 102.38C46.8475 102.24 46.8686 102.065 46.84 101.992C46.7352 101.723 45.8082 101.52 45.339 101.663ZM35.2158 103.298V103.941H35.8696H36.5234V103.298V102.654H35.8696H35.2158V103.298ZM36.8651 103.006C36.8296 103.145 36.822 103.478 36.848 103.745L36.8955 104.23L36.1813 104.259L35.4673 104.288L35.4412 104.882C35.4048 105.716 35.4459 105.753 36.3077 105.669L37.0264 105.6V104.92V104.238H37.7305H38.4345V103.496V102.753H37.6821C36.9591 102.753 36.9271 102.763 36.8651 103.006ZM39.7303 103.585C38.7931 104.349 36.5714 106.639 35.8453 107.588L35.2174 108.409L35.3724 108.775C35.7009 109.551 35.6712 109.537 36.938 109.545C37.5675 109.549 38.3088 109.611 38.5854 109.683C40.0891 110.075 41.0042 110.986 41.2028 112.29L41.2738 112.756H36.6858H32.0977V108.348C32.0977 104.154 32.0888 103.941 31.9148 103.941C31.6119 103.941 30.7211 104.23 30.6072 104.366C30.5323 104.454 30.5412 105.384 30.6373 107.51C30.7124 109.169 30.8057 111.319 30.8445 112.285L30.9151 114.043H36.625H42.3349L42.3925 113.721C42.7313 111.823 42.4162 110.565 41.3349 109.5C40.4359 108.615 38.8184 108.035 37.4998 108.125L36.9171 108.164L37.6507 107.431C38.5016 106.582 39.8512 105.443 40.9995 104.606C41.442 104.284 41.8201 103.978 41.8397 103.925C41.9286 103.689 41.2692 103.228 40.6858 103.119C40.4142 103.069 40.2864 103.13 39.7303 103.585ZM55.7006 104.422L55.119 105L55.7493 105.6L56.3796 106.199L56.9783 105.667L57.5769 105.133L58.1988 105.67L58.8207 106.208L59.4123 105.62L60.0037 105.031L59.4065 104.436C59.078 104.11 58.78 103.842 58.7443 103.842C58.7085 103.842 58.4171 104.091 58.0967 104.394L57.5142 104.945L56.9487 104.394C56.6376 104.091 56.3604 103.842 56.3326 103.842C56.3048 103.842 56.0204 104.103 55.7006 104.422ZM45.2995 105.425C44.7858 105.655 44.8142 105.203 45.0251 109.785C45.224 114.106 45.2166 114.043 45.5352 114.043C45.6718 114.043 45.9407 113.979 46.1325 113.901L46.4814 113.757V109.493V105.229L46.1042 105.232C45.8968 105.233 45.5345 105.32 45.2995 105.425ZM62.6918 106.76L62.1223 107.3L62.7227 107.899C63.0528 108.228 63.347 108.496 63.3765 108.494C63.4059 108.491 63.7015 108.248 64.0334 107.954L64.637 107.418L64.0366 106.819C63.7064 106.489 63.3968 106.219 63.3488 106.219C63.3007 106.219 63.0051 106.463 62.6918 106.76ZM58.9255 107.12C58.202 107.288 57.948 107.477 57.948 107.846C57.948 108.17 57.9187 108.195 56.9994 108.635C55.9551 109.136 54.9891 109.928 54.5742 110.625C53.7214 112.057 54.5862 113.528 56.5196 113.932C57.4178 114.119 57.5831 114.087 57.9944 113.639L58.3661 113.234L58.7181 113.639L59.0702 114.043H60.8763H62.6823L62.8901 113.697C63.0043 113.506 63.1189 113.35 63.1448 113.35C63.1707 113.35 63.336 113.459 63.5121 113.591C64.1129 114.041 64.3135 114.051 72.0284 114.021L79.3193 113.994L79.5118 113.35C79.8862 112.097 79.7438 108.692 79.3101 108.529C79.1328 108.461 78.3524 108.744 78.0517 108.983L77.8339 109.157L78.0617 109.792C78.2297 110.262 78.3031 110.736 78.3409 111.597L78.392 112.767L71.3636 112.731C66.1023 112.705 64.2403 112.666 63.958 112.573C63.7506 112.505 63.5808 112.431 63.5808 112.407C63.5808 112.383 63.6474 112.196 63.7287 111.99C63.81 111.785 63.9727 111.266 64.0902 110.837C64.3569 109.864 64.2912 109.764 63.3454 109.705L62.7051 109.665L62.5911 110.535C62.5283 111.014 62.3795 111.71 62.2604 112.081L62.0441 112.756H60.8007H59.5574V109.884C59.5574 107.647 59.5296 107.014 59.4317 107.021C59.3626 107.027 59.1347 107.072 58.9255 107.12ZM26.4103 107.393C26.242 107.495 25.9821 107.722 25.8328 107.896L25.5612 108.214L25.8565 108.578C26.5816 109.474 27.0642 110.875 27.0669 112.092L27.0684 112.766L26.4901 112.714C26.1719 112.686 25.527 112.638 25.0567 112.607C24.5865 112.576 23.9306 112.489 23.5991 112.414C23.2676 112.338 22.9754 112.296 22.9497 112.322C22.8802 112.39 22.8933 113.729 22.9642 113.799C23.0808 113.913 24.9143 114.038 26.5295 114.041L28.153 114.043L28.2178 113.79C28.5491 112.49 28.4461 110.675 27.959 109.228C27.63 108.25 27.0934 107.276 26.8611 107.234C26.7815 107.219 26.5787 107.291 26.4103 107.393ZM84.93 107.375C84.4258 107.55 84.4198 107.587 84.6635 109C84.8112 109.856 85.3031 111.885 85.4581 112.277C85.5116 112.412 85.4182 112.463 84.9374 112.563C84.1671 112.721 82.5934 112.698 81.8396 112.519C81.5092 112.44 81.2036 112.397 81.1607 112.423C81.0565 112.486 81.0633 113.662 81.1689 113.826C81.2263 113.915 81.6392 113.973 82.506 114.013C83.8173 114.075 85.0767 113.952 85.8329 113.689C86.2342 113.55 86.2567 113.553 86.5123 113.795L86.7766 114.043H88.8903C91.2647 114.043 91.8039 113.95 92.3998 113.435C92.6381 113.229 92.7505 113.179 92.7505 113.279C92.7505 113.564 94.2586 114.001 95.6609 114.121L96.6009 114.203L97.0887 113.713C97.6791 113.123 97.8119 112.713 97.7636 111.619C97.7013 110.165 97.0012 109.159 95.6196 108.536C94.828 108.178 93.7438 108.091 93.4416 108.36C93.0001 108.754 92.8305 109.105 92.7413 109.814C92.599 110.945 92.2926 111.814 91.8991 112.201C91.4315 112.662 90.9001 112.756 88.7765 112.756H87.0252L86.8147 112.087C86.5357 111.202 86.2275 109.403 86.1468 108.189L86.0816 107.21L85.7196 107.217C85.5204 107.222 85.1651 107.293 84.93 107.375ZM3.62307 108.539C3.32765 108.639 2.52569 109.15 2.52569 109.238C2.52569 109.251 2.74798 109.68 3.01976 110.192C3.54301 111.177 3.93388 112.283 3.93388 112.778C3.93388 113.567 2.476 115.2 0.940872 116.132L0.0296724 116.684L0.229233 116.994C0.462792 117.358 0.995691 117.708 1.31505 117.708C2.07537 117.708 4.24821 115.348 4.68787 114.045L4.85373 113.553L5.15659 113.774L5.45945 113.994L13.2881 114.021L21.1167 114.048L21.2234 113.724C21.4885 112.918 21.6587 111.505 21.5962 110.626C21.5345 109.759 21.3231 108.651 21.1951 108.525C21.1048 108.436 20.1203 108.762 19.8583 108.968L19.6387 109.141L19.8771 109.834C20.1417 110.604 20.2915 111.85 20.1861 112.404L20.1175 112.764L12.9059 112.734C7.3407 112.711 5.62351 112.675 5.38482 112.578C5.08709 112.457 5.0711 112.418 4.95452 111.556C4.83905 110.703 4.37132 109.085 4.10789 108.63C3.99393 108.433 3.95571 108.426 3.62307 108.539ZM58.1679 111.932C58.2043 112.625 58.1991 112.644 57.9509 112.691C57.2868 112.818 56.0148 112.325 55.6696 111.806C55.5288 111.595 55.5242 111.523 55.6382 111.314C55.878 110.872 56.7224 110.138 57.3669 109.81L57.9983 109.489L58.0645 110.355C58.1009 110.831 58.1475 111.54 58.1679 111.932ZM94.9633 109.9C96.1221 110.39 96.794 111.584 96.5063 112.644C96.446 112.867 96.4118 112.875 95.8787 112.815C95.171 112.734 93.8252 112.382 93.5972 112.218C93.4363 112.102 93.4356 112.062 93.5887 111.621C93.6789 111.36 93.8084 110.798 93.8767 110.371C94.0171 109.491 94.0053 109.496 94.9633 109.9ZM17.4548 115.987L16.8894 116.544L17.4746 117.126C17.7964 117.446 18.108 117.708 18.167 117.708C18.2259 117.708 18.5201 117.463 18.8208 117.163L19.3673 116.618L19.9266 117.163C20.2343 117.463 20.5314 117.708 20.587 117.708C20.6427 117.708 20.9302 117.467 21.2262 117.172L21.7642 116.635L21.2255 116.033C20.9292 115.701 20.6281 115.43 20.5562 115.43C20.4843 115.43 20.1671 115.676 19.8512 115.978L19.2768 116.526L18.7889 115.978C18.5204 115.676 18.2377 115.43 18.1605 115.43C18.0833 115.43 17.7657 115.68 17.4548 115.987ZM75.6727 115.954C75.3842 116.241 75.1481 116.521 75.1481 116.576C75.1481 116.705 76.1797 117.708 76.3131 117.708C76.3694 117.708 76.6768 117.479 76.9961 117.198L77.5767 116.689L78.1007 117.198C78.3888 117.479 78.6685 117.708 78.722 117.708C78.7756 117.708 79.0896 117.47 79.4198 117.179L80.0203 116.65L79.4297 116.04C79.1049 115.704 78.7879 115.43 78.7253 115.43C78.6626 115.43 78.3654 115.675 78.0648 115.975L77.5182 116.52L76.9589 115.975C76.6512 115.675 76.3541 115.43 76.2985 115.43C76.2429 115.43 75.9613 115.665 75.6727 115.954ZM49.891 120.349C49.7004 120.398 48.2407 123.686 48.3393 123.844C48.4171 123.968 48.9907 123.979 49.1812 123.86C49.2554 123.814 49.7869 123.046 50.3624 122.153C51.305 120.692 51.392 120.518 51.2393 120.406C51.0801 120.29 50.2475 120.255 49.891 120.349ZM0.866037 121.124C0.810716 121.143 0.595765 121.186 0.388258 121.22C0.0788587 121.271 0.0110644 121.323 0.0110644 121.513C0.0110644 121.638 0.728336 123.565 1.60504 125.791L3.19911 129.84L3.95782 129.868L4.71653 129.897L6.42718 125.659C7.36806 123.329 8.10494 121.387 8.06481 121.345C7.93908 121.212 6.75338 121.031 6.66446 121.131C6.6195 121.183 6.02062 122.705 5.33372 124.515C4.64683 126.326 4.058 127.807 4.02541 127.808C3.99272 127.809 3.40842 126.294 2.72686 124.442C1.52769 121.184 1.4792 121.076 1.22714 121.083C1.0839 121.088 0.921359 121.107 0.866037 121.124ZM54.0943 121.149C54.0705 121.191 53.2462 123.109 52.2625 125.413C50.909 128.583 50.5021 129.63 50.5901 129.716C50.6541 129.779 50.9939 129.849 51.3452 129.87L51.984 129.911L52.441 128.786L52.8981 127.661L54.7579 127.634L56.6178 127.607L57.0708 128.724L57.5239 129.84L57.9623 129.872C58.5839 129.918 59.1897 129.728 59.1103 129.512C59.0766 129.42 58.2708 127.485 57.3196 125.21L55.59 121.075H54.8639C54.4645 121.075 54.1182 121.108 54.0943 121.149ZM62.5247 121.218C61.8086 121.399 61.5063 121.531 61.0057 121.885C59.8199 122.724 59.2057 124.494 59.4573 126.347C59.6991 128.128 60.591 129.266 62.1526 129.784C62.6256 129.941 63.0242 129.988 63.8582 129.988C65.0274 129.988 65.7932 129.841 66.6738 129.445L67.2019 129.208V127.021V124.834L65.4165 124.861L63.6311 124.888L63.6011 125.507L63.5713 126.126H64.7327H65.8943V127.164V128.201L65.6078 128.347C65.1503 128.58 64.0786 128.735 63.4595 128.659C61.4469 128.412 60.4838 126.293 61.2821 123.87C61.6505 122.752 62.1162 122.454 63.5216 122.44C64.3495 122.432 65.1036 122.585 65.8832 122.922C66.2787 123.093 66.4603 123.128 66.5548 123.051C66.6841 122.945 67.0007 122.137 67.0007 121.912C67.0007 121.749 66.1152 121.387 65.3047 121.218C64.4892 121.048 63.2025 121.048 62.5247 121.218ZM71.8377 121.298C71.7901 121.42 70.9721 123.342 70.0202 125.567C68.7635 128.505 68.3195 129.644 68.3996 129.722C68.4604 129.782 68.7974 129.849 69.1488 129.87L69.7875 129.911L70.2447 128.786L70.7017 127.661H72.5832H74.4646L74.9173 128.775L75.3702 129.889H75.8477C76.3254 129.889 76.958 129.729 76.9593 129.608C76.9596 129.572 76.1612 127.638 75.1849 125.309L73.4098 121.075H72.6671C71.9896 121.075 71.9168 121.095 71.8377 121.298ZM92.358 121.185C91.8378 121.23 91.2547 121.319 91.0622 121.382L90.7121 121.496L90.7727 122.152C90.806 122.513 90.8644 124.401 90.9025 126.348C90.9811 130.363 90.903 130.066 91.851 129.939L92.3481 129.871V128.098V126.324L92.9265 126.329L93.5049 126.333L94.7575 128.114C95.6376 129.366 96.0808 129.914 96.2488 129.956C96.5616 130.033 97.7053 129.868 97.7435 129.741C97.7606 129.686 97.1621 128.866 96.4158 127.917L95.0573 126.193L95.5146 126.036C96.5858 125.667 97.1098 124.9 97.1068 123.699C97.1018 122.132 96.3102 121.383 94.4301 121.17C93.9766 121.118 93.5376 121.083 93.4546 121.09C93.3716 121.097 92.8781 121.14 92.358 121.185ZM9.62951 121.319C9.41506 121.395 9.19739 121.499 9.14559 121.549C9.08715 121.607 9.09188 122.727 9.15797 124.504C9.21651 126.076 9.26459 127.93 9.26469 128.623L9.26489 129.88L9.59179 129.934C9.77153 129.963 10.0771 129.953 10.2707 129.91L10.6228 129.832L10.649 125.503L10.6752 121.174L10.3473 121.179C10.1668 121.181 9.84386 121.244 9.62951 121.319ZM13.15 121.319C12.9355 121.395 12.7179 121.499 12.6661 121.549C12.6076 121.607 12.6124 122.727 12.6784 124.504C12.737 126.076 12.7851 127.91 12.7852 128.577L12.7854 129.79H15.4932H18.201L18.2654 129.502C18.3008 129.343 18.2994 129.053 18.2622 128.858L18.1945 128.503H16.1941H14.1936V124.838V121.174L13.8667 121.179C13.6869 121.181 13.3643 121.244 13.15 121.319ZM19.7366 121.376L19.2948 121.573L19.3588 123.28C19.394 124.219 19.4524 126.068 19.4887 127.388L19.5544 129.79H22.2439H24.9333L24.9761 129.504C24.9996 129.346 24.9997 129.056 24.9765 128.86L24.9341 128.503H22.9335H20.9328V124.838V121.174L20.5556 121.177C20.3482 121.178 19.9796 121.268 19.7366 121.376ZM27.0145 121.272C26.7359 121.313 26.4041 121.378 26.277 121.417L26.0461 121.49L26.1064 123.734C26.1396 124.968 26.1936 126.836 26.2262 127.884L26.2858 129.79H29.1965H32.1072L32.0774 129.171L32.0474 128.552L29.8597 128.525L27.672 128.5V127.312V126.126H29.6334H31.5948V125.482V124.838H29.6334H27.672V123.65V122.461H29.8848H32.0977V121.818V121.174L29.8094 121.187C28.5509 121.194 27.2931 121.232 27.0145 121.272ZM39.7119 121.27C39.5017 121.311 39.2876 121.384 39.2362 121.434C39.1788 121.492 39.1801 122.593 39.2394 124.297C39.2925 125.821 39.3369 127.683 39.3379 128.435L39.3398 129.804L41.6281 129.77C43.7297 129.74 43.9632 129.718 44.49 129.511C46.2074 128.834 47.1082 126.945 46.7844 124.7C46.5225 122.882 45.559 121.748 43.9205 121.328C43.2834 121.165 40.468 121.126 39.7119 121.27ZM78.4905 121.29L78.0611 121.385L78.1165 124.573C78.1471 126.326 78.1978 128.22 78.2294 128.784L78.2866 129.807L80.5648 129.774L82.8429 129.741L83.5014 129.434C83.8636 129.265 84.3187 128.989 84.5127 128.822C85.2609 128.175 85.7095 126.942 85.7095 125.532C85.7095 123.206 84.6102 121.699 82.6116 121.285C81.9741 121.153 79.0977 121.156 78.4905 121.29ZM87.7841 121.319C87.5696 121.395 87.352 121.499 87.3002 121.549C87.2418 121.607 87.2465 122.652 87.3123 124.304C87.3707 125.769 87.4188 127.623 87.419 128.424L87.4195 129.88L87.7464 129.934C87.9262 129.963 88.2317 129.953 88.4253 129.91L88.7773 129.832L88.8036 125.503L88.8298 121.174L88.5019 121.179C88.3214 121.181 87.9984 121.244 87.7841 121.319ZM43.7166 122.728C44.2838 123.022 44.662 123.419 44.9401 124.012C45.4036 125 45.349 126.477 44.8078 127.589C44.4285 128.368 44.2317 128.439 42.3322 128.485L40.748 128.523V125.483V122.442L42.0305 122.48C43.0932 122.511 43.382 122.553 43.7166 122.728ZM82.2837 122.618C83.044 122.84 83.7271 123.529 83.9598 124.308C84.2934 125.425 84.1169 127.018 83.571 127.816C83.1923 128.37 82.9269 128.443 81.158 128.486L79.5738 128.523L79.5741 127.498C79.5742 126.934 79.604 125.57 79.6403 124.467L79.7063 122.461H80.7282C81.3655 122.461 81.9511 122.521 82.2837 122.618ZM94.7305 122.567C95.3827 122.811 95.6635 123.36 95.5204 124.11C95.4825 124.309 95.3225 124.6 95.1648 124.754C94.8802 125.035 94.8698 125.036 93.6132 125.036H92.3481V123.749V122.461H93.3977C93.975 122.461 94.5748 122.509 94.7305 122.567ZM55.1103 123.749C55.2229 124.049 55.4966 124.751 55.7187 125.309L56.1223 126.324H54.7817H53.4411L54.1044 124.689C54.4691 123.789 54.7987 123.088 54.8366 123.129C54.8746 123.17 54.9978 123.45 55.1103 123.749ZM73.3005 124.722L73.917 126.274L72.6581 126.303C71.9657 126.318 71.3775 126.309 71.351 126.283C71.3244 126.256 71.5908 125.524 71.9427 124.654C72.2948 123.784 72.6055 123.094 72.6333 123.121C72.661 123.148 72.9613 123.869 73.3005 124.722Z" fill="#285EA6"/>
</svg>
