<svg width="1070" height="1392" viewBox="0 0 1070 1392" fill="none" xmlns="http://www.w3.org/2000/svg">
<path fill-rule="evenodd" clip-rule="evenodd" d="M535.406 40.7224C533.43 43.2274 494.861 110.68 494.736 111.848C494.551 113.588 535.434 184.478 536.61 184.456C537.16 184.446 546.941 168.192 558.345 148.335L579.079 112.232L558.469 76.6234C547.133 57.0384 537.536 40.6574 537.142 40.2224C536.748 39.7864 535.967 40.0114 535.406 40.7224ZM661.955 81.5854C650.725 82.9724 636.866 86.7484 626.402 91.2724C617.726 95.0224 598.935 106.61 596.215 109.888C595.19 111.123 595.961 113.095 600.634 121.199C603.748 126.597 606.437 131.16 606.61 131.338C606.783 131.516 610.004 129.152 613.767 126.084C622.295 119.133 640.047 110.173 650.61 107.489C681.279 99.6974 713.285 105.928 737.916 124.489C772.892 150.844 787.371 195.499 774.402 237.014C766.144 263.448 747.063 285.536 721.636 298.094C715.601 301.075 710.115 303.514 709.445 303.514C706.61 303.514 707.307 306.048 712.635 315.101C719.272 326.377 718.087 326.19 733.675 318.429C768.853 300.913 793.746 267.214 800.619 227.804C802.542 216.778 802.527 196.214 800.589 184.895C791.877 134.012 751.486 92.6304 701.228 83.0964C690.833 81.1244 671.659 80.3874 661.955 81.5854ZM662.77 118.562C654.779 119.903 644.166 123.464 636.155 127.491C628.351 131.415 614.11 141.851 614.11 143.647C614.11 144.207 615.928 147.777 618.149 151.582L622.189 158.498L628.399 153.23C642.821 140.997 656.146 135.504 673.254 134.741C686.911 134.131 696.487 136.124 708.769 142.132C737.816 156.341 753.978 188.943 747.524 220.306C741.752 248.352 722.358 268.301 692.298 277.114C691.122 277.459 693.109 281.696 698.958 291.319C700.103 293.203 714.352 287.816 723.801 281.928C766.755 255.156 778.763 197.556 750.049 156.019C736.57 136.522 715.656 123.061 692.593 119.039C683.312 117.421 670.765 117.22 662.77 118.562ZM465.61 161.171C454.61 180.219 445.228 196.586 444.76 197.541C444.117 198.855 448.981 208.059 464.76 235.389C476.228 255.251 486.055 271.356 486.599 271.178C487.404 270.915 500.368 248.87 526.096 204.014L528.964 199.014L508.234 163.08C496.833 143.316 487.079 127.009 486.558 126.842C486.036 126.675 476.61 142.123 465.61 161.171ZM584.727 128.764C582.04 132.996 445.008 370.617 444.516 371.898C444.056 373.098 462.853 406.144 519.951 504.514L544.039 546.014L540.325 546.282C538.282 546.43 534.619 546.198 532.186 545.768L527.761 544.984L457.186 422.293C418.369 354.813 386.309 299.582 385.942 299.558C385.233 299.511 344.839 369.97 344.284 372.221C343.986 373.43 482.889 615.379 485.54 618.269C486.451 619.262 505.946 619.471 578.91 619.269L671.128 619.014L601.531 498.514C563.253 432.239 531.309 376.819 530.545 375.358C529.197 372.781 530.649 370.113 579.176 285.989C606.688 238.296 629.065 198.911 628.904 198.467C627.95 195.84 587.48 126.575 586.883 126.547C586.483 126.529 585.513 127.527 584.727 128.764ZM661.908 160.393C658.771 161.424 654.271 163.407 651.908 164.799C646.571 167.942 637.21 177.269 636.482 180.168C636.087 181.741 641.6 192.157 656.775 218.508L677.61 254.688L683.11 254.201C699.651 252.735 715.987 239.992 722.159 223.739C725.143 215.882 725.856 202.963 723.758 194.779C720.025 180.221 710.965 169.205 697.418 162.751C690.056 159.244 688.982 159.017 678.61 158.774C670.024 158.574 666.359 158.929 661.908 160.393ZM434.741 215.764C433.005 218.524 396.871 281.164 395.278 284.176C394.265 286.091 396.52 290.466 415.038 322.508C426.535 342.402 436.147 358.885 436.398 359.136C436.649 359.387 446.379 343.075 458.019 322.888L479.184 286.184L464.453 260.599C456.351 246.527 446.997 230.188 443.666 224.29C440.335 218.393 437.283 213.555 436.883 213.54C436.483 213.526 435.519 214.526 434.741 215.764ZM631.387 221.764C628.76 226.301 619.335 242.614 610.444 258.014L594.278 286.014L597.444 291.617C599.185 294.699 665.185 408.883 744.11 545.359L887.61 793.498L929.884 793.506L972.158 793.514L970.384 790.134C964.655 779.216 637.481 213.546 636.887 213.532C636.489 213.522 634.014 217.227 631.387 221.764ZM565.304 336.126L544.099 372.739L617.779 500.877C658.303 571.352 692.149 630.09 692.992 631.405L694.524 633.796L594.212 633.405L493.9 633.014L473.914 668.514C462.922 688.039 453.696 704.577 453.412 705.264C453 706.261 490.009 706.514 636.503 706.514C744.752 706.514 820.11 706.144 820.11 705.613C820.11 704.742 588.559 301.778 587.188 300.263C586.815 299.851 576.967 315.989 565.304 336.126ZM314.687 422.717C295.991 455.139 293.923 459.171 294.815 461.459C295.362 462.864 306.453 482.409 319.46 504.892C332.468 527.375 343.11 545.895 343.11 546.048C343.11 546.201 320.723 546.1 293.36 545.824L243.61 545.321L172.61 668.566C133.56 736.351 101.46 792.194 101.277 792.662C101.093 793.131 120.043 793.514 143.388 793.514H185.832L235.721 706.764L285.61 620.014L295.61 619.381C301.11 619.034 342.671 618.696 387.967 618.631C460.594 618.528 470.256 618.337 469.751 617.02C468.814 614.578 337.981 389.126 336.715 387.772C335.816 386.81 330.845 394.696 314.687 422.717ZM272.851 668.48C261.443 688.261 252.11 704.916 252.11 705.491C252.11 706.205 265.464 706.453 294.307 706.275L336.505 706.014L357.258 670.014C368.673 650.214 378.034 633.677 378.061 633.264C378.088 632.851 359.093 632.514 335.851 632.514H293.592L272.851 668.48ZM393.789 633.264C383.126 651.463 352.11 705.559 352.11 705.957C352.11 706.263 371.174 706.514 394.475 706.514H436.84L457.475 670.557C468.824 650.78 478.11 634.13 478.11 633.557C478.11 632.338 394.501 632.047 393.789 633.264ZM246.11 751.95V776.37L251.36 778.292C254.247 779.349 276.004 787.064 299.707 795.437L342.804 810.66L390.809 794.087C417.212 784.972 439.218 777.514 439.712 777.513C440.206 777.513 462.21 784.967 488.61 794.077L536.61 810.64L584.814 793.592L633.018 776.544L681.327 793.589L729.637 810.633L777.623 793.666L825.61 776.699L825.877 752.248L826.144 727.796L778.505 744.655C752.304 753.928 730.298 761.514 729.604 761.514C728.91 761.514 706.89 753.935 680.672 744.671L633.001 727.828L585.431 744.671C559.267 753.935 537.286 761.514 536.585 761.514C535.883 761.514 514.226 754.069 488.459 744.969C462.692 735.869 440.935 728.368 440.11 728.301C439.285 728.234 417.331 735.679 391.324 744.846C365.316 754.014 343.469 761.514 342.774 761.514C341.665 761.514 259.656 732.808 249.86 728.991L246.11 727.53V751.95ZM201.11 807.076C177.185 815.568 155.698 823.228 153.36 824.098L149.11 825.679V849.597C149.11 868.079 149.394 873.508 150.36 873.486C151.048 873.471 172.928 865.901 198.983 856.664L246.357 839.869L293.877 856.692C320.012 865.944 342.048 873.514 342.844 873.514C343.64 873.514 365.761 866.101 392.002 857.041L439.713 840.568L487.431 857.041C513.676 866.101 535.79 873.514 536.573 873.514C537.357 873.514 558.98 866.089 584.625 857.014C610.27 847.939 632.059 840.514 633.046 840.514C634.032 840.514 655.838 847.939 681.504 857.014C707.171 866.089 728.806 873.514 729.583 873.514C730.36 873.514 751.992 866.089 777.655 857.014C803.318 847.939 825.101 840.514 826.062 840.514C827.023 840.514 848.836 847.939 874.535 857.014C900.233 866.089 921.684 873.514 922.203 873.514C922.775 873.514 923.04 864.029 922.878 849.409L922.61 825.303L874.366 808.263L826.122 791.223L778.476 808.035C752.271 817.282 730.247 824.847 729.533 824.847C728.819 824.847 706.826 817.278 680.659 808.026L633.084 791.205L585.386 808.056C559.152 817.325 536.995 824.853 536.149 824.786C535.303 824.718 513.46 817.205 487.61 808.089C461.76 798.974 440.16 791.522 439.61 791.53C439.06 791.538 417.06 799.146 390.721 808.437L342.832 825.329L295.052 808.421C268.774 799.122 246.674 791.542 245.941 791.575C245.209 791.609 225.035 798.584 201.11 807.076ZM246.935 955.567C230.152 957.496 216.949 969.229 213.186 985.556C211.726 991.892 211.892 1009.11 213.469 1015.01C218.659 1034.44 232.993 1044.51 255.449 1044.51C281.943 1044.51 298.146 1027.62 298.095 1000.05C298.053 977.116 288.251 962.099 270.11 957.18C262.727 955.178 254.998 954.64 246.935 955.567ZM971.61 955.578C961.871 956.824 954.655 960.067 948.745 965.853C939.372 975.03 935.365 987.356 936.402 1003.83C937.993 1029.13 951.158 1042.81 975.326 1044.26C1005.32 1046.07 1022.31 1029.89 1022.3 999.514C1022.3 979.903 1015.76 967.148 1002.09 960.059C993.908 955.814 982.672 954.163 971.61 955.578ZM57.828 957.597C54.234 958.451 48.11 961.171 48.11 961.912C48.11 962.102 53.786 970.512 60.723 980.6C67.661 990.687 73.516 999.41 73.736 999.982C73.956 1000.56 68.255 1009.77 61.068 1020.46L48 1039.9L50.805 1041.46C53.157 1042.76 58.135 1043.01 81.61 1043.01H109.61V1037.01V1031.01L90.36 1030.74C79.772 1030.59 71.11 1030.25 71.11 1029.98C71.11 1029.7 74.935 1023.75 79.61 1016.75C90.795 1000.01 90.806 1000.74 79.124 983.09L70.138 969.514H89.605H109.072L109.661 967.169C109.984 965.879 110.105 963.066 109.93 960.919L109.61 957.014L85.61 956.856C72.41 956.769 59.908 957.102 57.828 957.597ZM134.483 958.432C132.214 959.462 130.023 960.846 129.614 961.507C129.206 962.167 129.201 972.339 129.602 984.111L130.331 1005.51H141.581H152.831L153.462 1010.76C153.809 1013.65 154.097 1022.2 154.101 1029.76L154.11 1043.51L157.86 1043.5C166.59 1043.47 166.11 1044.61 166.11 1023.9V1005.51L174.36 1005.5C178.897 1005.5 184.298 1005.21 186.36 1004.87L190.11 1004.25V980.383V956.514H187.806C186.539 956.514 183.217 957.653 180.424 959.045L175.345 961.576L175.706 967.795C175.904 971.215 176.258 977.714 176.492 982.237L176.917 990.46L173.764 990.946C172.029 991.214 164.647 991.717 157.36 992.064L144.11 992.695V974.605V956.514L141.36 956.536C139.848 956.548 136.753 957.401 134.483 958.432ZM337.435 957.52C334.589 957.937 330.539 959.118 328.435 960.146C325.172 961.739 324.637 962.455 324.791 965.014C324.89 966.664 325.3 985.008 325.701 1005.78L326.431 1043.54L356.02 1043.28L385.61 1043.01V1037.51V1032.01L362.36 1031.75L339.11 1031.48V1000.5V969.514H362.003C387.257 969.514 386.11 969.823 386.11 963.014C386.11 956.223 387.087 956.501 363.753 956.639C352.124 956.707 340.281 957.104 337.435 957.52ZM467.508 957.84C465.803 958.486 463.388 959.704 462.143 960.547L459.878 962.08L460.999 995.047C461.616 1013.18 462.118 1031.5 462.115 1035.76L462.11 1043.51L466.36 1043.5C468.697 1043.49 471.622 1043.22 472.86 1042.88L475.11 1042.28V999.397V956.514L472.86 956.59C471.622 956.632 469.214 957.194 467.508 957.84ZM617.307 958.073C611.459 959.647 608.11 961.193 608.11 962.319C608.11 962.724 613.693 972.193 620.518 983.363L632.925 1003.67L621.018 1021.78C614.468 1031.74 609.11 1040.23 609.11 1040.65C609.11 1041.75 615.963 1043.5 620.298 1043.51C623.969 1043.51 624.027 1043.45 632.162 1029.93C636.658 1022.46 640.666 1016.72 641.068 1017.18C641.47 1017.64 645.287 1023.75 649.549 1030.76C657.207 1043.36 657.341 1043.51 660.954 1043.51C666.483 1043.5 672.364 1041.62 671.762 1040.05C671.482 1039.32 666.105 1030.87 659.813 1021.26C650.286 1006.72 648.545 1003.48 649.404 1001.91C649.971 1000.87 654.58 993.264 659.645 985.014C669.335 969.232 670.652 965.922 669.56 960.098L668.887 956.514L645.749 956.58C629.03 956.627 621.139 957.042 617.307 958.073ZM788.2 958.764C787.727 960.001 780.538 978.705 772.225 1000.33C763.912 1021.95 757.11 1040.04 757.11 1040.53C757.11 1041.78 763.821 1043.5 768.721 1043.51L772.833 1043.51L784.094 1010.76C790.288 992.751 795.678 977.659 796.073 977.224C796.467 976.79 801.937 991.415 808.229 1009.72L819.669 1043.01L824.299 1043.32C826.864 1043.48 830.544 1042.94 832.549 1042.1C836.155 1040.6 836.164 1040.58 834.81 1037.3C834.063 1035.49 826.76 1016.58 818.581 995.264L803.712 956.514H796.386C789.711 956.514 788.984 956.714 788.2 958.764ZM862.29 958.417C859.364 959.427 856.49 960.734 855.904 961.32C855.15 962.074 858.684 967.961 867.993 981.457L881.147 1000.53L868.062 1020.01C860.866 1030.72 855.236 1039.91 855.553 1040.42C856.891 1042.59 867.539 1043.51 891.052 1043.51C912.784 1043.51 915.972 1043.32 916.503 1041.93C917.272 1039.93 917.261 1035.68 916.48 1032.76C915.881 1030.53 915.749 1030.51 896.508 1030.51H877.138L886.225 1016.79C897.534 999.7 897.548 1000.63 885.721 982.921L877.1 970.014L896.494 969.743C915.601 969.476 915.896 969.439 916.485 967.243C917.261 964.347 917.27 960.094 916.503 958.096C915.972 956.713 912.865 956.518 891.753 956.547C870.976 956.575 866.868 956.835 862.29 958.417ZM547.07 959.817C540.847 963.107 538.11 968.65 538.11 977.959C538.11 991.676 544.615 998.539 557.572 998.492C568.903 998.451 575.15 993.596 577.346 983.123C578.705 976.644 577.335 969.043 573.952 964.293C569.151 957.549 555.618 955.296 547.07 959.817ZM564.11 971.135C566.209 973.174 566.601 974.462 566.555 979.172C566.484 986.363 563.858 989.012 557.627 988.176C551.825 987.398 549.11 983.883 549.11 977.149C549.11 974.26 549.673 971.173 550.36 970.289C553.033 966.853 560.153 967.291 564.11 971.135ZM269.402 971.834C275.293 975.293 279.652 981.13 281.761 988.385C284.986 999.477 282.063 1019.22 276.068 1026.84C272.042 1031.96 250.118 1033.14 241.467 1028.71C230.067 1022.86 224.435 1008.32 227.049 991.472C228.213 983.969 232.233 973.487 234.746 971.401C237.242 969.329 242.466 968.614 253.61 968.819C263.677 969.003 265.017 969.259 269.402 971.834ZM991.11 970.593C1006.34 977.478 1011.71 995.405 1005.03 1017.04C1002.3 1025.87 999.092 1029.25 992.224 1030.52C973.593 1033.96 960.539 1029.2 954.413 1016.72C951.836 1011.47 951.61 1010.09 951.61 999.514C951.61 986.85 953.338 979.59 957.736 973.783C960.869 969.646 964.295 968.71 976.61 968.626C984.628 968.571 987.502 968.961 991.11 970.593ZM652.768 972.914C651.903 974.234 648.881 978.959 646.052 983.414C643.224 987.869 640.775 991.514 640.61 991.514C640.445 991.514 637.996 987.869 635.168 983.414C632.339 978.959 629.317 974.234 628.452 972.914L626.88 970.514H640.61H654.34L652.768 972.914ZM703.493 993.916C697.05 996.916 693.613 1001.39 691.542 1009.47C687.72 1024.39 694.08 1039.03 705.93 1042.58C708.058 1043.22 713.625 1043.57 718.361 1043.37C725.95 1043.06 727.44 1042.67 731.275 1040.01C737.964 1035.39 741.268 1027.95 741.268 1017.51C741.268 1010.53 740.853 1008.5 738.439 1003.67C734.053 994.901 727.558 991.521 715.11 991.529C710.367 991.532 707.227 992.178 703.493 993.916ZM549.765 1003.91C541.396 1007.03 538.101 1012.64 538.126 1023.73C538.153 1035.48 542.715 1041.58 552.898 1043.49C568.455 1046.4 579.395 1036.41 577.792 1020.76C577.076 1013.77 573.567 1007.67 568.867 1005.25C563.94 1002.72 554.717 1002.07 549.765 1003.91ZM721.576 1004.94C728.163 1007.69 730.611 1018.73 726.5 1027.14L724.61 1031.01L717.807 1031.31C711.265 1031.6 710.876 1031.48 707.683 1028.29C705.445 1026.05 704.128 1023.58 703.643 1020.71C702.699 1015.12 704.675 1006.93 707.436 1005C710.12 1003.12 717.153 1003.09 721.576 1004.94ZM563.804 1015.93C566.247 1018.03 566.602 1019.03 566.547 1023.68C566.458 1031.32 564.996 1033.51 560.009 1033.51C555.691 1033.51 552.354 1032.16 550.392 1029.6C548.919 1027.68 548.736 1019.63 550.085 1016.08C550.952 1013.8 551.616 1013.51 556.029 1013.51C559.842 1013.51 561.651 1014.08 563.804 1015.93ZM498.753 1066.51C490.388 1069.11 486.634 1078.94 491.168 1086.38C492.295 1088.23 493.081 1089.84 492.914 1089.95C492.747 1090.07 491.148 1090.75 489.36 1091.46C485.894 1092.84 485.253 1094.96 487.407 1097.91C488.63 1099.58 489.138 1099.59 496.365 1098.1C500.578 1097.23 506.247 1096.51 508.961 1096.51C514.472 1096.51 515.11 1095.79 515.11 1089.56V1085.76L510.729 1086.25C505.592 1086.83 500.084 1085.25 497.566 1082.47C495.844 1080.56 495.866 1080.4 498.196 1077.9C500.398 1075.53 501.119 1075.35 506.419 1075.82C511.952 1076.31 512.274 1076.21 513.21 1073.75C513.75 1072.33 513.96 1070.57 513.676 1069.83C512.634 1067.11 503.418 1065.06 498.753 1066.51ZM398.11 1083.01V1089.51H404.61H411.11V1083.01V1076.51H404.61H398.11V1083.01ZM414.507 1080.07C414.154 1081.47 414.078 1084.83 414.337 1087.53L414.809 1092.43L407.709 1092.72L400.61 1093.01L400.351 1099.01C399.989 1107.43 400.397 1107.8 408.965 1106.96L416.11 1106.26V1099.39V1092.51H423.11H430.11V1085.01V1077.51H422.629C415.441 1077.51 415.123 1077.61 414.507 1080.07ZM442.992 1085.91C433.675 1093.63 411.587 1116.75 404.368 1126.33L398.126 1134.62L399.667 1138.32C402.933 1146.15 402.637 1146.01 415.232 1146.09C421.49 1146.13 428.86 1146.76 431.61 1147.49C446.559 1151.44 455.657 1160.64 457.631 1173.81L458.337 1178.51H412.724H367.11V1134.01C367.11 1091.66 367.022 1089.51 365.292 1089.51C362.28 1089.51 353.424 1092.43 352.292 1093.8C351.547 1094.69 351.636 1104.08 352.591 1125.54C353.338 1142.3 354.265 1164 354.651 1173.76L355.353 1191.51H412.12H468.887L469.459 1188.26C472.828 1169.09 469.695 1156.39 458.945 1145.64C450.007 1136.7 433.926 1130.84 420.817 1131.75L415.024 1132.15L422.317 1124.75C430.777 1116.17 444.194 1104.67 455.61 1096.22C460.01 1092.97 463.769 1089.88 463.963 1089.35C464.847 1086.96 458.292 1082.31 452.492 1081.21C449.791 1080.7 448.521 1081.32 442.992 1085.91ZM601.766 1094.36L595.984 1100.2L602.25 1106.26L608.517 1112.31L614.469 1106.93L620.42 1101.54L626.603 1106.97L632.786 1112.4L638.667 1106.46L644.547 1100.51L638.61 1094.51C635.344 1091.21 632.381 1088.51 632.026 1088.51C631.67 1088.51 628.773 1091.02 625.588 1094.08L619.797 1099.64L614.175 1094.08C611.082 1091.02 608.326 1088.51 608.05 1088.51C607.773 1088.51 604.946 1091.14 601.766 1094.36ZM498.36 1104.49C493.253 1106.81 493.535 1102.25 495.632 1148.51C497.61 1192.14 497.536 1191.51 500.703 1191.51C502.062 1191.51 504.735 1190.86 506.642 1190.07L510.11 1188.62V1145.57V1102.51L506.36 1102.54C504.298 1102.55 500.697 1103.43 498.36 1104.49ZM671.272 1117.97L665.61 1123.42L671.579 1129.47C674.861 1132.79 677.786 1135.5 678.079 1135.48C678.371 1135.45 681.31 1133 684.61 1130.03L690.61 1124.62L684.641 1118.57C681.359 1115.24 678.281 1112.51 677.803 1112.51C677.325 1112.51 674.386 1114.97 671.272 1117.97ZM633.828 1121.61C626.635 1123.3 624.11 1125.21 624.11 1128.94C624.11 1132.21 623.818 1132.46 614.679 1136.9C604.296 1141.96 594.693 1149.96 590.568 1157C582.089 1171.46 590.687 1186.31 609.909 1190.39C618.838 1192.28 620.482 1191.95 624.571 1187.43L628.266 1183.34L631.766 1187.43L635.266 1191.51H653.222H671.177L673.243 1188.01C674.378 1186.09 675.518 1184.51 675.775 1184.51C676.033 1184.51 677.676 1185.61 679.427 1186.94C685.4 1191.49 687.394 1191.59 764.095 1191.29L836.58 1191.01L838.493 1184.51C842.216 1171.86 840.8 1137.48 836.488 1135.83C834.725 1135.15 826.967 1138 823.977 1140.42L821.812 1142.17L824.077 1148.59C825.747 1153.33 826.477 1158.12 826.852 1166.81L827.36 1178.62L757.485 1178.26C705.178 1178 686.667 1177.6 683.86 1176.67C681.798 1175.98 680.11 1175.23 680.11 1174.99C680.11 1174.75 680.772 1172.86 681.58 1170.78C682.389 1168.71 684.006 1163.47 685.174 1159.14C687.826 1149.31 687.173 1148.3 677.77 1147.71L671.404 1147.3L670.27 1156.09C669.646 1160.92 668.167 1167.95 666.983 1171.7L664.832 1178.51H652.471H640.11V1149.51C640.11 1126.93 639.834 1120.54 638.86 1120.61C638.173 1120.67 635.908 1121.12 633.828 1121.61ZM310.567 1124.36C308.894 1125.39 306.31 1127.68 304.825 1129.44L302.125 1132.65L305.061 1136.33C312.27 1145.37 317.068 1159.52 317.095 1171.81L317.11 1178.61L311.36 1178.09C308.197 1177.81 301.785 1177.32 297.11 1177.01C292.435 1176.7 285.914 1175.82 282.618 1175.06C279.323 1174.29 276.418 1173.87 276.162 1174.13C275.471 1174.82 275.601 1188.34 276.306 1189.04C277.466 1190.2 295.694 1191.46 311.752 1191.49L327.893 1191.51L328.537 1188.95C331.83 1175.83 330.806 1157.5 325.964 1142.89C322.693 1133.02 317.358 1123.18 315.049 1122.76C314.257 1122.61 312.241 1123.33 310.567 1124.36ZM892.36 1124.18C887.347 1125.95 887.288 1126.32 889.711 1140.59C891.179 1149.23 896.069 1169.72 897.61 1173.68C898.142 1175.04 897.214 1175.56 892.434 1176.56C884.776 1178.16 869.13 1177.93 861.636 1176.12C858.351 1175.32 855.313 1174.89 854.886 1175.15C853.85 1175.79 853.918 1187.66 854.968 1189.32C855.539 1190.22 859.644 1190.8 868.261 1191.21C881.298 1191.83 893.819 1190.59 901.337 1187.93C905.326 1186.53 905.55 1186.56 908.091 1189L910.719 1191.51H931.733C955.339 1191.51 960.699 1190.57 966.624 1185.37C968.993 1183.29 970.11 1182.78 970.11 1183.79C970.11 1186.67 985.104 1191.08 999.045 1192.3L1008.39 1193.12L1013.24 1188.18C1019.11 1182.22 1020.43 1178.08 1019.95 1167.03C1019.33 1152.35 1012.37 1142.19 998.634 1135.9C990.764 1132.29 979.985 1131.41 976.981 1134.13C972.592 1138.1 970.906 1141.65 970.019 1148.81C968.604 1160.23 965.558 1169 961.646 1172.91C956.997 1177.56 951.714 1178.51 930.601 1178.51H913.19L911.098 1171.76C908.324 1162.82 905.26 1144.66 904.457 1132.4L903.809 1122.51L900.21 1122.59C898.23 1122.64 894.697 1123.35 892.36 1124.18ZM84.02 1135.93C81.083 1136.94 73.11 1142.1 73.11 1142.99C73.11 1143.12 75.32 1147.45 78.022 1152.62C83.224 1162.57 87.11 1173.74 87.11 1178.74C87.11 1186.7 72.616 1203.19 57.354 1212.6L48.295 1218.18L50.279 1221.31C52.601 1224.98 57.899 1228.51 61.074 1228.51C68.633 1228.51 90.235 1204.69 94.606 1191.53L96.255 1186.56L99.266 1188.79L102.277 1191.01L180.108 1191.29L257.939 1191.56L259 1188.29C261.635 1180.15 263.327 1165.88 262.706 1157.01C262.092 1148.25 259.991 1137.06 258.718 1135.79C257.82 1134.89 248.033 1138.19 245.428 1140.27L243.245 1142.01L245.615 1149.01C248.245 1156.78 249.735 1169.37 248.687 1174.96L248.005 1178.59L176.308 1178.29C120.98 1178.06 103.908 1177.7 101.535 1176.72C98.575 1175.49 98.416 1175.1 97.257 1166.4C96.109 1157.78 91.459 1141.45 88.84 1136.85C87.707 1134.86 87.327 1134.79 84.02 1135.93ZM626.296 1170.19C626.658 1177.19 626.606 1177.38 624.138 1177.86C617.536 1179.14 604.89 1174.16 601.458 1168.92C600.058 1166.79 600.013 1166.06 601.146 1163.95C603.53 1159.49 611.925 1152.08 618.332 1148.77L624.61 1145.53L625.268 1154.27C625.63 1159.08 626.093 1166.24 626.296 1170.19ZM992.11 1149.68C1003.63 1154.62 1010.31 1166.68 1007.45 1177.38C1006.85 1179.63 1006.51 1179.72 1001.21 1179.11C994.174 1178.29 980.795 1174.74 978.528 1173.08C976.928 1171.91 976.922 1171.51 978.444 1167.05C979.34 1164.42 980.628 1158.74 981.307 1154.43C982.703 1145.55 982.585 1145.6 992.11 1149.68ZM221.533 1211.14L215.912 1216.76L221.73 1222.64C224.929 1225.87 228.027 1228.51 228.613 1228.51C229.199 1228.51 232.124 1226.04 235.113 1223.01L240.547 1217.51L246.107 1223.01C249.166 1226.04 252.12 1228.51 252.673 1228.51C253.226 1228.51 256.085 1226.08 259.027 1223.1L264.376 1217.68L259.02 1211.6C256.075 1208.25 253.081 1205.51 252.366 1205.51C251.652 1205.51 248.498 1208 245.357 1211.05L239.647 1216.58L234.796 1211.05C232.127 1208 229.316 1205.51 228.549 1205.51C227.781 1205.51 224.624 1208.04 221.533 1211.14ZM800.326 1210.8C797.457 1213.7 795.11 1216.53 795.11 1217.08C795.11 1218.39 805.366 1228.51 806.692 1228.51C807.252 1228.51 810.308 1226.2 813.483 1223.37L819.255 1218.23L824.464 1223.37C827.329 1226.2 830.109 1228.51 830.641 1228.51C831.174 1228.51 834.296 1226.11 837.579 1223.17L843.549 1217.83L837.677 1211.67C834.448 1208.28 831.296 1205.51 830.674 1205.51C830.051 1205.51 827.096 1207.99 824.107 1211.02L818.673 1216.52L813.113 1211.02C810.054 1207.99 807.1 1205.51 806.547 1205.51C805.994 1205.51 803.195 1207.89 800.326 1210.8ZM544.008 1255.18C542.113 1255.68 527.601 1288.88 528.581 1290.47C529.355 1291.72 535.058 1291.83 536.951 1290.63C537.689 1290.17 542.973 1282.41 548.695 1273.4C558.066 1258.64 558.931 1256.89 557.413 1255.76C555.83 1254.59 547.552 1254.23 544.008 1255.18ZM56.61 1263.01C56.06 1263.2 53.923 1263.63 51.86 1263.98C48.784 1264.49 48.11 1265.02 48.11 1266.93C48.11 1268.2 55.241 1287.65 63.957 1310.13L79.805 1351.01L87.348 1351.3L94.891 1351.59L111.898 1308.8C121.252 1285.27 128.578 1265.66 128.179 1265.24C126.929 1263.9 115.141 1262.07 114.257 1263.08C113.81 1263.6 107.856 1278.97 101.027 1297.25C94.198 1315.53 88.344 1330.49 88.02 1330.5C87.695 1330.51 81.886 1315.21 75.11 1296.51C63.188 1263.61 62.706 1262.52 60.2 1262.59C58.776 1262.64 57.16 1262.83 56.61 1263.01ZM585.797 1263.26C585.56 1263.68 577.365 1283.05 567.585 1306.31C554.129 1338.32 550.084 1348.89 550.959 1349.76C551.595 1350.4 554.973 1351.1 558.466 1351.32L564.816 1351.73L569.36 1340.37L573.904 1329.01L592.394 1328.74L610.885 1328.47L615.389 1339.74L619.893 1351.01L624.252 1351.34C630.431 1351.8 636.454 1349.88 635.665 1347.7C635.33 1346.77 627.319 1327.23 617.862 1304.26L600.667 1262.51H593.448C589.477 1262.51 586.034 1262.85 585.797 1263.26ZM669.61 1263.96C662.491 1265.78 659.486 1267.12 654.509 1270.69C642.72 1279.16 636.613 1297.03 639.115 1315.74C641.519 1333.73 650.386 1345.22 665.911 1350.45C670.613 1352.03 674.576 1352.51 682.868 1352.51C694.492 1352.51 702.105 1351.02 710.86 1347.02L716.11 1344.63V1322.55V1300.47L698.36 1300.74L680.61 1301.01L680.312 1307.26L680.015 1313.51H691.562H703.11V1323.99V1334.46L700.262 1335.94C695.714 1338.29 685.059 1339.86 678.904 1339.09C658.895 1336.59 649.32 1315.2 657.257 1290.73C660.919 1279.44 665.549 1276.44 679.521 1276.29C687.752 1276.21 695.249 1277.76 703 1281.16C706.932 1282.89 708.737 1283.24 709.677 1282.46C710.962 1281.39 714.11 1273.23 714.11 1270.96C714.11 1269.32 705.306 1265.66 697.249 1263.96C689.141 1262.24 676.349 1262.24 669.61 1263.96ZM762.199 1264.76C761.725 1266 753.593 1285.4 744.129 1307.87C731.635 1337.53 727.221 1349.03 728.018 1349.82C728.622 1350.43 731.973 1351.1 735.466 1351.32L741.816 1351.73L746.361 1340.37L750.905 1329.01H769.61H788.315L792.816 1340.26L797.318 1351.51H802.065C806.815 1351.51 813.104 1349.89 813.117 1348.67C813.12 1348.31 805.182 1328.78 795.476 1305.26L777.828 1262.51H770.444C763.709 1262.51 762.985 1262.71 762.199 1264.76ZM966.208 1263.62C961.036 1264.08 955.239 1264.98 953.325 1265.61L949.845 1266.76L950.447 1273.39C950.778 1277.03 951.359 1296.09 951.738 1315.75C952.519 1356.29 951.743 1353.3 961.168 1352.01L966.11 1351.33V1333.42V1315.51L971.86 1315.56L977.61 1315.6L990.064 1333.59C998.813 1346.23 1003.22 1351.76 1004.89 1352.18C1008 1352.96 1019.37 1351.3 1019.75 1350.01C1019.92 1349.46 1013.97 1341.18 1006.55 1331.6L993.044 1314.19L997.59 1312.6C1008.24 1308.88 1013.45 1301.13 1013.42 1289.01C1013.37 1273.18 1005.5 1265.62 986.809 1263.47C982.3 1262.95 977.935 1262.59 977.11 1262.66C976.285 1262.73 971.379 1263.17 966.208 1263.62ZM143.735 1264.98C141.603 1265.74 139.439 1266.79 138.924 1267.3C138.343 1267.88 138.39 1279.19 139.047 1297.13C139.629 1313.01 140.107 1331.73 140.108 1338.72L140.11 1351.42L143.36 1351.96C145.147 1352.26 148.185 1352.15 150.11 1351.72L153.61 1350.93L153.871 1307.22L154.131 1263.51L150.871 1263.56C149.077 1263.58 145.866 1264.22 143.735 1264.98ZM178.735 1264.98C176.603 1265.74 174.439 1266.79 173.924 1267.3C173.343 1267.88 173.39 1279.19 174.047 1297.13C174.629 1313.01 175.107 1331.53 175.108 1338.26L175.11 1350.51H202.031H228.951L229.592 1347.6C229.944 1345.99 229.93 1343.07 229.56 1341.1L228.887 1337.51H208.999H189.11V1300.51V1263.51L185.86 1263.56C184.073 1263.58 180.866 1264.22 178.735 1264.98ZM244.218 1265.55L239.826 1267.54L240.462 1284.78C240.812 1294.26 241.393 1312.93 241.753 1326.26L242.407 1350.51H269.145H295.883L296.308 1347.62C296.542 1346.03 296.543 1343.1 296.312 1341.12L295.891 1337.51H276.001H256.11V1300.51V1263.51L252.36 1263.54C250.298 1263.55 246.634 1264.46 244.218 1265.55ZM316.574 1264.5C313.804 1264.91 310.505 1265.57 309.242 1265.97L306.946 1266.7L307.546 1289.36C307.876 1301.82 308.412 1320.68 308.737 1331.26L309.329 1350.51H338.267H367.205L366.908 1344.26L366.61 1338.01L344.86 1337.74L323.11 1337.48V1325.49V1313.51H342.61H362.11V1307.01V1300.51H342.61H323.11V1288.51V1276.51H345.11H367.11V1270.01V1263.51L344.36 1263.64C331.848 1263.71 319.344 1264.1 316.574 1264.5ZM442.809 1264.48C440.719 1264.89 438.591 1265.63 438.08 1266.14C437.509 1266.72 437.522 1277.84 438.112 1295.04C438.64 1310.43 439.081 1329.23 439.091 1336.83L439.11 1350.65L461.86 1350.31C482.754 1350 485.075 1349.78 490.312 1347.69C507.386 1340.86 516.342 1321.78 513.123 1299.11C510.519 1280.76 500.94 1269.31 484.65 1265.07C478.316 1263.42 450.326 1263.03 442.809 1264.48ZM828.34 1264.68L824.071 1265.64L824.622 1297.83C824.926 1315.53 825.43 1334.66 825.744 1340.35L826.313 1350.68L848.962 1350.35L871.61 1350.01L878.157 1346.91C881.758 1345.21 886.283 1342.42 888.211 1340.73C895.65 1334.2 900.11 1321.75 900.11 1307.51C900.11 1284.03 889.181 1268.81 869.311 1264.63C862.973 1263.3 834.376 1263.33 828.34 1264.68ZM920.735 1264.98C918.603 1265.74 916.439 1266.79 915.924 1267.3C915.344 1267.88 915.39 1278.44 916.045 1295.12C916.625 1309.91 917.103 1328.63 917.105 1336.72L917.11 1351.42L920.36 1351.96C922.148 1352.26 925.185 1352.15 927.11 1351.72L930.61 1350.93L930.871 1307.22L931.131 1263.51L927.871 1263.56C926.077 1263.58 922.866 1264.22 920.735 1264.98ZM482.623 1279.2C488.262 1282.17 492.022 1286.18 494.787 1292.17C499.395 1302.14 498.852 1317.06 493.472 1328.28C489.701 1336.15 487.744 1336.87 468.86 1337.33L453.11 1337.72V1307.02V1276.31L465.86 1276.7C476.426 1277.01 479.297 1277.44 482.623 1279.2ZM866.051 1278.09C873.61 1280.33 880.401 1287.29 882.715 1295.16C886.031 1306.43 884.276 1322.52 878.849 1330.58C875.084 1336.17 872.446 1336.91 854.86 1337.34L839.11 1337.72L839.113 1327.37C839.114 1321.67 839.41 1307.9 839.771 1296.76L840.427 1276.51H850.587C856.922 1276.51 862.744 1277.11 866.051 1278.09ZM989.795 1277.58C996.279 1280.04 999.071 1285.58 997.648 1293.16C997.271 1295.17 995.681 1298.1 994.113 1299.66C991.283 1302.5 991.18 1302.51 978.687 1302.51H966.11V1289.51V1276.51H976.545C982.284 1276.51 988.247 1276.99 989.795 1277.58ZM595.898 1289.51C597.017 1292.54 599.738 1299.63 601.946 1305.26L605.959 1315.51H592.631H579.303L585.897 1299C589.523 1289.92 592.8 1282.84 593.177 1283.25C593.554 1283.67 594.779 1286.49 595.898 1289.51ZM776.741 1299.34L782.871 1315.01L770.355 1315.3C763.471 1315.45 757.623 1315.36 757.36 1315.1C757.096 1314.83 759.744 1307.43 763.243 1298.65C766.743 1289.86 769.832 1282.9 770.108 1283.17C770.384 1283.44 773.369 1290.72 776.741 1299.34Z" fill="#285EA6"/>
</svg>
